<svg xmlns="http://www.w3.org/2000/svg" viewBox="0 0 180 37" fill="none">
  <path d="M0 18.5C0 8.28273 8.28273 0 18.5 0H161.5C171.717 0 180 8.28273 180 18.5C180 28.7173 171.717 37 161.5 37H18.5C8.28273 37 0 28.7173 0 18.5Z" fill="black"/>
  <path d="M45.5 12.5V24.5H41.5V12.5H45.5ZM57.5 12.5V24.5H53.5V12.5H57.5ZM69.5 12.5V24.5H65.5V12.5H69.5ZM81.5 12.5V24.5H77.5V12.5H81.5ZM93.5 12.5V24.5H89.5V12.5H93.5ZM105.5 12.5V24.5H101.5V12.5H105.5ZM117.5 12.5V24.5H113.5V12.5H117.5ZM129.5 12.5V24.5H125.5V12.5H129.5ZM141.5 12.5V24.5H137.5V12.5H141.5ZM153.5 12.5V24.5H149.5V12.5H153.5Z" fill="white"/>
</svg>