<svg xmlns="http://www.w3.org/2000/svg" viewBox="0 0 283 64" fill="none">
  <path d="M141.04 16c-11.04 0-19 7.2-19 18s8.96 18 20 18c6.67 0 12.55-2.64 16.19-7.09l-7.65-4.42c-2.02 2.21-5.09 3.5-8.54 3.5-4.79 0-8.86-2.5-10.37-6.5h28.02c.22-1.12.35-2.28.35-3.5 0-10.79-7.96-17.99-19-17.99zM159.04 36h-17.04c1.41-3.5 4.48-6 8.54-6 4.05 0 7.12 2.5 8.54 6z" fill="#000"/>
  <path d="M0 18.5C0 8.28273 8.28273 0 18.5 0H264.5C274.717 0 283 8.28273 283 18.5C283 28.7173 274.717 37 264.5 37H18.5C8.28273 37 0 28.7173 0 18.5Z" fill="#000"/>
  <path d="M37.5 12.5V24.5H33.5V12.5H37.5ZM49.5 12.5V24.5H45.5V12.5H49.5ZM61.5 12.5V24.5H57.5V12.5H61.5ZM73.5 12.5V24.5H69.5V12.5H73.5ZM85.5 12.5V24.5H81.5V12.5H85.5ZM97.5 12.5V24.5H93.5V12.5H97.5ZM109.5 12.5V24.5H105.5V12.5H109.5ZM121.5 12.5V24.5H117.5V12.5H121.5ZM133.5 12.5V24.5H129.5V12.5H133.5Z" fill="#fff"/>
</svg>